<svg width="42" height="42" viewBox="0 0 42 42" fill="none" xmlns="http://www.w3.org/2000/svg">
<g clip-path="url(#clip0_56_2)">
<path fill-rule="evenodd" clip-rule="evenodd" d="M26.5557 12.6853C24.9112 11.5865 22.9778 11 21 11V1C24.9556 1 28.8224 2.17298 32.1114 4.37061C35.4004 6.56823 37.9638 9.69181 39.4776 13.3463C40.9913 17.0008 41.3874 21.0222 40.6157 24.9018C39.844 28.7814 37.9392 32.3451 35.1421 35.1421C32.3451 37.9392 28.7814 39.844 24.9018 40.6157C21.0222 41.3874 17.0008 40.9913 13.3463 39.4776C9.69181 37.9638 6.56823 35.4004 4.37061 32.1114C2.17298 28.8224 1 24.9556 1 21H11C11 22.9778 11.5865 24.9112 12.6853 26.5557C13.7841 28.2002 15.3459 29.4819 17.1732 30.2388C19.0004 30.9957 21.0111 31.1937 22.9509 30.8078C24.8907 30.422 26.6725 29.4696 28.0711 28.0711C29.4696 26.6725 30.422 24.8907 30.8078 22.9509C31.1937 21.0111 30.9957 19.0004 30.2388 17.1732C29.4819 15.3459 28.2002 13.7841 26.5557 12.6853Z" fill="#007DFC" stroke="white" stroke-width="0.5"/>
<path fill-rule="evenodd" clip-rule="evenodd" d="M11 1C11 2.31322 10.7413 3.61358 10.2388 4.82683C9.73625 6.04009 8.99965 7.14248 8.07106 8.07107C7.14248 8.99966 6.04009 9.73625 4.82683 10.2388C3.61357 10.7413 2.31321 11 1 11L1 21C3.62644 21 6.22715 20.4827 8.65368 19.4776C11.0802 18.4725 13.285 16.9993 15.1421 15.1421C16.9993 13.285 18.4725 11.0802 19.4776 8.65367C20.4827 6.22715 21 3.62643 21 1L11 1Z" fill="#007DFC" stroke="white" stroke-width="0.5"/>
</g>
<defs>
<clipPath id="clip0_56_2">
<rect width="42" height="42" fill="white"/>
</clipPath>
</defs>
</svg>
