<svg width="2000" height="1500" viewBox="0 0 2000 1500" fill="none" xmlns="http://www.w3.org/2000/svg">
<g clip-path="url(#clip0_74_18)">
<path d="M0 3000C1656.85 3000 3000 1656.85 3000 0C3000 -1656.85 1656.85 -3000 0 -3000C-1656.85 -3000 -3000 -1656.85 -3000 0C-3000 1656.85 -1656.85 3000 0 3000Z" fill="url(#paint0_radial_74_18)"/>
<g opacity="0.5">
<path d="M0 2000C1104.57 2000 2000 1104.57 2000 0C2000 -1104.57 1104.57 -2000 0 -2000C-1104.57 -2000 -2000 -1104.57 -2000 0C-2000 1104.57 -1104.57 2000 0 2000Z" fill="url(#paint1_radial_74_18)"/>
<path d="M0 1800C994.113 1800 1800 994.113 1800 0C1800 -994.113 994.113 -1800 0 -1800C-994.113 -1800 -1800 -994.113 -1800 0C-1800 994.113 -994.113 1800 0 1800Z" fill="url(#paint2_radial_74_18)"/>
<path d="M0 1700C938.884 1700 1700 938.884 1700 0C1700 -938.884 938.884 -1700 0 -1700C-938.884 -1700 -1700 -938.884 -1700 0C-1700 938.884 -938.884 1700 0 1700Z" fill="url(#paint3_radial_74_18)"/>
<path d="M0 1651C911.822 1651 1651 911.822 1651 0C1651 -911.822 911.822 -1651 0 -1651C-911.822 -1651 -1651 -911.822 -1651 0C-1651 911.822 -911.822 1651 0 1651Z" fill="url(#paint4_radial_74_18)"/>
<path d="M0 1450C800.813 1450 1450 800.813 1450 0C1450 -800.813 800.813 -1450 0 -1450C-800.813 -1450 -1450 -800.813 -1450 0C-1450 800.813 -800.813 1450 0 1450Z" fill="url(#paint5_radial_74_18)"/>
<path d="M0 1250C690.356 1250 1250 690.356 1250 0C1250 -690.356 690.356 -1250 0 -1250C-690.356 -1250 -1250 -690.356 -1250 0C-1250 690.356 -690.356 1250 0 1250Z" fill="url(#paint6_radial_74_18)"/>
<path d="M0 1175C648.935 1175 1175 648.935 1175 0C1175 -648.935 648.935 -1175 0 -1175C-648.935 -1175 -1175 -648.935 -1175 0C-1175 648.935 -648.935 1175 0 1175Z" fill="url(#paint7_radial_74_18)"/>
<path d="M0 900C497.056 900 900 497.056 900 0C900 -497.056 497.056 -900 0 -900C-497.056 -900 -900 -497.056 -900 0C-900 497.056 -497.056 900 0 900Z" fill="url(#paint8_radial_74_18)"/>
<path d="M0 750C414.214 750 750 414.214 750 0C750 -414.214 414.214 -750 0 -750C-414.214 -750 -750 -414.214 -750 0C-750 414.214 -414.214 750 0 750Z" fill="url(#paint9_radial_74_18)"/>
<path d="M0 500C276.142 500 500 276.142 500 0C500 -276.142 276.142 -500 0 -500C-276.142 -500 -500 -276.142 -500 0C-500 276.142 -276.142 500 0 500Z" fill="url(#paint10_radial_74_18)"/>
<path d="M0 380C209.868 380 380 209.868 380 0C380 -209.868 209.868 -380 0 -380C-209.868 -380 -380 -209.868 -380 0C-380 209.868 -209.868 380 0 380Z" fill="url(#paint11_radial_74_18)"/>
<path d="M0 250C138.071 250 250 138.071 250 0C250 -138.071 138.071 -250 0 -250C-138.071 -250 -250 -138.071 -250 0C-250 138.071 -138.071 250 0 250Z" fill="url(#paint12_radial_74_18)"/>
</g>
<path d="M-46.5486 -180.088C-34.9575 -182.824 -23.1169 -184.458 -11.2525 -184.948C0.615342 -185.426 12.4956 -184.757 24.1837 -182.956C35.8718 -181.154 47.3563 -178.218 58.4353 -174.236C69.5177 -170.242 80.1832 -165.2 90.2562 -159.196C100.329 -153.192 109.807 -146.237 118.522 -138.469C127.241 -130.691 135.187 -122.096 142.217 -112.832C149.246 -103.568 155.371 -93.6375 160.47 -83.242C165.575 -72.8236 169.651 -61.9519 172.676 -50.8213C169.179 -61.813 164.647 -72.4503 159.139 -82.5375C153.642 -92.6281 147.172 -102.157 139.868 -110.953C132.56 -119.76 124.417 -127.833 115.606 -135.034C106.79 -142.247 97.2916 -148.595 87.306 -153.962C77.317 -159.341 66.8264 -163.746 56.0556 -167.106C45.2699 -170.473 34.1925 -172.792 23.0117 -174.017C11.8309 -175.242 0.566382 -175.392 -10.5923 -174.459C-21.7511 -173.527 -32.789 -171.504 -43.5289 -168.468C-46.7163 -167.568 -49.9211 -169.489 -50.8217 -172.676C-51.7223 -175.864 -49.9892 -179.113 -46.7903 -180.017C-46.7097 -180.041 -46.6407 -180.061 -46.5567 -180.074L-46.5486 -180.088Z" fill="url(#paint13_linear_74_18)"/>
<path d="M-279.794 -133.501C-270.87 -151.231 -260.271 -168.098 -248.185 -183.771C-236.082 -199.435 -222.5 -213.886 -207.679 -226.879C-192.858 -239.872 -176.804 -251.389 -159.851 -261.268C-142.88 -271.139 -125.017 -279.355 -106.56 -285.783C-88.1023 -292.211 -69.0692 -296.86 -49.8153 -299.667C-30.5431 -302.465 -11.0581 -303.403 8.30082 -302.453C27.6597 -301.503 46.9005 -298.684 65.6348 -294.057C84.4058 -289.414 102.652 -282.97 120.104 -274.909C102.324 -282.218 83.8879 -287.828 65.1081 -291.603C46.3364 -295.395 27.2393 -297.344 8.18428 -297.44C-10.889 -297.545 -29.9201 -295.798 -48.5541 -292.262C-67.2064 -288.735 -85.4879 -283.408 -103.038 -276.409C-120.606 -269.418 -137.469 -260.743 -153.298 -250.591C-169.152 -240.428 -183.98 -228.77 -197.522 -215.807C-211.064 -202.845 -223.323 -188.623 -234.087 -173.377C-244.851 -158.131 -254.094 -141.872 -261.723 -124.907C-263.988 -119.873 -269.875 -117.84 -274.909 -120.105C-279.943 -122.369 -282.235 -128.063 -279.963 -133.116C-279.907 -133.244 -279.858 -133.354 -279.784 -133.475L-279.794 -133.501Z" fill="url(#paint14_linear_74_18)"/>
<path d="M-219.448 -319.39C-198.706 -333.006 -176.69 -344.64 -153.812 -354.053C-130.919 -363.446 -107.184 -370.601 -83.0192 -375.403C-58.854 -380.205 -34.2783 -382.639 -9.75164 -382.738C14.7898 -382.816 39.262 -380.546 63.2603 -375.969C87.2586 -371.392 110.768 -364.529 133.365 -355.533C155.977 -346.517 177.656 -335.354 198.019 -322.227C218.382 -309.099 237.449 -294.022 254.838 -277.304C272.256 -260.546 287.981 -242.166 301.835 -222.532C287.155 -241.558 270.704 -259.153 252.733 -274.976C234.783 -290.814 215.327 -304.859 194.76 -316.873C174.178 -328.907 152.484 -338.911 130.103 -346.729C107.706 -354.568 84.5869 -360.228 61.214 -363.62C37.8261 -367.032 14.1498 -368.181 -9.33 -367.084C-32.8447 -365.991 -56.183 -362.638 -78.9445 -357.069C-101.706 -351.501 -123.865 -343.767 -145.046 -333.991C-166.227 -324.214 -186.395 -312.389 -205.257 -298.793C-210.855 -294.759 -218.498 -296.237 -222.532 -301.835C-226.567 -307.433 -225.489 -315.03 -219.871 -319.079C-219.73 -319.182 -219.609 -319.272 -219.453 -319.355L-219.448 -319.39Z" fill="url(#paint15_linear_74_18)"/>
<path d="M-463.589 36.4228C-465.293 6.69751 -464.175 -23.1633 -460.23 -52.5864C-456.255 -82.0128 -449.451 -110.972 -439.942 -138.966C-430.434 -166.961 -418.217 -193.961 -403.604 -219.509C-388.961 -245.06 -371.918 -269.13 -352.762 -291.324C-333.607 -313.517 -312.369 -333.831 -289.462 -351.917C-266.525 -370.007 -241.917 -385.838 -216.057 -399.124C-190.196 -412.409 -163.088 -423.178 -135.281 -431.218C-107.414 -439.264 -78.8785 -444.578 -50.1613 -447.196C-78.7414 -443.356 -106.898 -436.816 -134.124 -427.634C-161.354 -418.482 -187.623 -406.69 -212.449 -392.525C-237.304 -378.356 -260.716 -361.813 -282.27 -343.245C-303.855 -324.673 -323.608 -304.043 -341.157 -281.788C-358.735 -259.53 -374.135 -235.614 -387.083 -210.554C-400.057 -185.462 -410.574 -159.196 -418.444 -132.2C-426.314 -105.205 -431.573 -77.5363 -434.121 -49.6585C-436.669 -21.7807 -436.481 6.27319 -433.669 34.0328C-432.836 42.2712 -438.957 49.3275 -447.196 50.1611C-455.434 50.9946 -462.682 45.3171 -463.519 37.0489C-463.542 36.8402 -463.563 36.6613 -463.556 36.4493L-463.589 36.4228Z" fill="url(#paint16_linear_74_18)"/>
<path d="M-600.295 155.161C-609.415 116.524 -614.86 77.0559 -616.493 37.5077C-618.087 -2.05169 -615.857 -41.6524 -609.853 -80.6128C-603.849 -119.573 -594.059 -157.855 -580.786 -194.785C-567.474 -231.726 -550.668 -267.278 -530.654 -300.855C-510.64 -334.432 -487.456 -366.023 -461.566 -395.075C-435.636 -424.138 -406.989 -450.624 -376.108 -474.056C-345.228 -497.488 -312.126 -517.905 -277.474 -534.9C-242.746 -551.918 -206.507 -565.502 -169.405 -575.588C-206.044 -563.929 -241.502 -548.823 -275.126 -530.463C-308.761 -512.141 -340.525 -490.575 -369.843 -466.227C-399.2 -441.867 -426.111 -414.724 -450.115 -385.352C-474.157 -355.969 -495.318 -324.306 -513.208 -291.02C-531.136 -257.724 -545.821 -222.755 -557.019 -186.852C-568.245 -150.9 -575.974 -113.976 -580.058 -76.7063C-584.141 -39.437 -584.64 -1.88849 -581.532 35.3072C-578.423 72.503 -571.681 109.296 -561.561 145.096C-558.56 155.72 -564.964 166.403 -575.589 169.405C-586.213 172.407 -597.045 166.63 -600.058 155.967C-600.137 155.699 -600.205 155.468 -600.246 155.188L-600.295 155.161Z" fill="url(#paint17_linear_74_18)"/>
<path d="M-630.903 -450.146C-601.234 -489.923 -567.816 -526.85 -531.258 -560.189C-494.659 -593.501 -454.947 -623.184 -412.816 -648.739C-370.685 -674.294 -326.162 -695.678 -280.135 -712.641C-234.066 -729.577 -186.52 -742.049 -138.287 -749.863C-90.0544 -757.677 -41.1763 -760.86 7.44549 -759.411C56.1089 -757.934 104.488 -751.784 151.738 -741.041C198.988 -730.299 245.135 -715.006 289.251 -695.481C333.45 -675.9 375.575 -652.114 415.043 -624.691C374.44 -650.407 331.486 -672.222 286.889 -689.667C242.319 -707.153 196.147 -720.241 149.275 -728.751C102.362 -737.289 54.7484 -741.249 7.33631 -740.634C-40.1174 -740.046 -87.4392 -734.869 -133.686 -725.255C-179.975 -715.669 -225.258 -701.634 -268.635 -683.51C-312.081 -665.372 -353.648 -643.105 -392.617 -617.07C-431.585 -591.035 -467.941 -561.343 -501.06 -528.48C-534.18 -495.617 -563.994 -459.598 -590.143 -421.144C-597.905 -409.733 -613.28 -407.282 -624.691 -415.043C-636.102 -422.805 -639.274 -437.819 -631.485 -449.272C-631.291 -449.563 -631.125 -449.813 -630.89 -450.077L-630.903 -450.146Z" fill="url(#paint18_linear_74_18)"/>
<path d="M-232.742 -900.442C-174.786 -914.122 -115.584 -922.29 -56.2614 -924.739C3.07769 -927.13 62.4788 -923.785 120.919 -914.779C179.36 -905.773 236.782 -891.088 292.177 -871.178C347.59 -851.211 400.917 -826.002 451.282 -795.981C501.648 -765.96 549.034 -731.184 592.612 -692.348C636.207 -653.454 675.936 -610.483 711.085 -564.162C746.233 -517.841 776.858 -468.188 802.351 -416.211C827.877 -364.118 848.254 -309.76 863.382 -254.107C845.894 -309.065 823.235 -362.252 795.694 -412.688C768.211 -463.141 735.863 -510.786 699.34 -554.764C662.801 -598.799 622.087 -639.166 578.029 -675.171C533.953 -711.234 486.459 -742.976 436.531 -769.811C386.586 -796.704 334.133 -818.73 280.279 -835.528C226.35 -852.367 170.964 -863.961 115.06 -870.086C59.1557 -876.211 2.83289 -876.96 -52.9607 -872.297C-108.754 -867.635 -163.944 -857.521 -217.643 -842.342C-233.58 -837.839 -249.605 -847.445 -254.108 -863.382C-258.61 -879.319 -249.945 -895.567 -233.951 -900.087C-233.548 -900.205 -233.202 -900.307 -232.783 -900.368L-232.742 -900.442Z" fill="url(#paint19_linear_74_18)"/>
<path d="M-979.28 -467.253C-948.044 -529.308 -910.946 -588.344 -868.648 -643.197C-826.285 -698.023 -778.75 -748.603 -726.876 -794.078C-675.001 -839.554 -618.815 -879.861 -559.479 -914.438C-500.079 -948.987 -437.558 -977.741 -372.958 -1000.24C-308.358 -1022.74 -241.742 -1039.01 -174.353 -1048.83C-106.9 -1058.63 -38.7027 -1061.91 29.0535 -1058.59C96.8096 -1055.26 164.152 -1045.4 229.722 -1029.2C295.421 -1012.95 359.283 -990.395 420.366 -962.181C358.134 -987.765 293.608 -1007.4 227.879 -1020.61C162.178 -1033.88 95.338 -1040.7 28.6456 -1041.04C-38.111 -1041.41 -104.72 -1035.29 -169.939 -1022.92C-235.222 -1010.57 -299.207 -991.929 -360.632 -967.432C-422.121 -942.962 -481.142 -912.602 -536.541 -877.069C-592.032 -841.5 -643.929 -800.694 -691.327 -755.325C-738.725 -709.956 -781.631 -660.181 -819.305 -606.82C-856.978 -553.46 -889.327 -496.551 -916.031 -437.176C-923.959 -419.556 -944.561 -412.439 -962.181 -420.366C-979.801 -428.294 -987.824 -448.222 -979.868 -465.906C-979.672 -466.355 -979.504 -466.74 -979.244 -467.161L-979.28 -467.253Z" fill="url(#paint20_linear_74_18)"/>
<path d="M-1177.83 536.579C-1210.59 460.456 -1236.09 381.291 -1253.78 300.58C-1271.4 219.832 -1281.17 137.613 -1282.95 55.3427C-1284.73 -26.9279 -1278.48 -109.175 -1264.58 -189.907C-1250.6 -270.676 -1228.94 -349.854 -1199.97 -426.136C-1171 -502.418 -1134.79 -575.767 -1092.09 -644.877C-1049.32 -714.024 -1000.03 -778.858 -945.039 -838.223C-890.049 -897.589 -829.399 -951.561 -764.324 -999.059C-699.099 -1046.63 -629.523 -1087.7 -556.906 -1121.88C-628.001 -1084.63 -695.419 -1040.72 -757.887 -990.788C-820.393 -940.929 -877.874 -885.081 -929.32 -824.398C-980.841 -763.679 -1026.33 -698.124 -1065.03 -629.04C-1103.8 -559.919 -1135.83 -487.156 -1160.54 -412.243C-1185.32 -337.294 -1202.84 -260.083 -1212.84 -182.215C-1222.89 -104.235 -1225.4 -25.5247 -1220.28 52.5732C-1215.17 130.671 -1202.58 208.044 -1182.71 283.383C-1162.83 358.723 -1135.63 431.918 -1101.85 501.846C-1091.83 522.6 -1101.13 546.883 -1121.88 556.906C-1142.63 566.928 -1166.99 558.979 -1177.05 538.15C-1177.31 537.627 -1177.54 537.178 -1177.72 536.617L-1177.83 536.579Z" fill="url(#paint21_linear_74_18)"/>
<path d="M-790.013 -1149.81C-715.341 -1198.82 -636.082 -1240.71 -553.722 -1274.59C-471.308 -1308.41 -385.863 -1334.17 -298.869 -1351.45C-211.874 -1368.74 -123.401 -1377.5 -35.1054 -1377.86C53.2439 -1378.14 141.344 -1369.96 227.738 -1353.49C314.131 -1337.01 398.766 -1312.3 480.115 -1279.92C561.517 -1247.46 639.562 -1207.28 712.869 -1160.02C786.176 -1112.76 854.817 -1058.48 917.416 -998.295C980.121 -937.965 1036.73 -871.799 1086.61 -801.115C1033.76 -869.609 974.536 -932.953 909.841 -989.915C845.218 -1046.93 775.179 -1097.49 701.137 -1140.74C627.042 -1184.07 548.944 -1220.08 468.37 -1248.23C387.743 -1276.45 304.513 -1296.82 220.371 -1309.03C136.175 -1321.32 50.9397 -1325.45 -33.5875 -1321.5C-118.241 -1317.57 -202.258 -1305.5 -284.2 -1285.45C-366.141 -1265.4 -445.914 -1237.56 -522.165 -1202.37C-598.416 -1167.17 -671.02 -1124.6 -738.923 -1075.66C-759.077 -1061.13 -786.593 -1066.45 -801.116 -1086.61C-815.639 -1106.76 -811.761 -1134.11 -791.534 -1148.68C-791.027 -1149.06 -790.593 -1149.38 -790.032 -1149.68L-790.013 -1149.81Z" fill="url(#paint22_linear_74_18)"/>
<path d="M-1237.47 -1057.18C-1168.12 -1134.97 -1091.45 -1206.1 -1008.87 -1269.16C-926.203 -1332.15 -837.693 -1386.98 -744.878 -1432.73C-652.062 -1478.47 -555.006 -1515.06 -455.612 -1542.12C-356.136 -1569.12 -254.386 -1586.51 -152.053 -1594.03C-49.719 -1601.55 53.117 -1599.26 154.569 -1587.33C256.103 -1575.34 356.188 -1553.61 453.069 -1522.49C549.949 -1491.37 643.691 -1450.93 732.407 -1402.01C821.288 -1352.96 905.061 -1295.49 982.61 -1230.89C902.375 -1292.12 816.507 -1345.62 726.402 -1390.28C636.361 -1435.02 542.165 -1470.85 445.666 -1497.23C349.086 -1523.68 250.203 -1540.68 150.904 -1548.07C51.5228 -1555.53 -48.4224 -1553.36 -146.931 -1541.71C-245.522 -1530.13 -342.823 -1509.05 -436.885 -1479.08C-531.095 -1449.08 -622.13 -1410.11 -708.417 -1362.78C-794.705 -1315.44 -876.195 -1259.98 -951.496 -1197.29C-1026.8 -1134.61 -1095.76 -1064.71 -1157.5 -989.049C-1175.83 -966.598 -1208.44 -964.284 -1230.9 -982.61C-1253.35 -1000.94 -1257.23 -1032.93 -1238.84 -1055.46C-1238.38 -1056.03 -1237.99 -1056.53 -1237.45 -1057.04L-1237.47 -1057.18Z" fill="url(#paint23_linear_74_18)"/>
<path d="M-1705.7 -741.93C-1655.9 -850.113 -1595.87 -953.475 -1526.68 -1049.98C-1457.39 -1146.45 -1378.97 -1235.95 -1292.82 -1316.96C-1206.67 -1397.97 -1112.82 -1470.39 -1013.23 -1533.18C-913.532 -1595.92 -808.139 -1648.93 -698.809 -1691.34C-589.479 -1733.75 -476.323 -1765.61 -361.458 -1786.47C-246.481 -1807.29 -129.838 -1816.99 -13.5569 -1815.35C102.725 -1813.71 218.689 -1800.84 331.996 -1777.01C445.525 -1753.1 556.286 -1718.28 662.624 -1673.6C554.475 -1713.71 442.751 -1743.49 329.351 -1762.18C215.996 -1780.99 101.074 -1788.68 -13.2061 -1785.27C-127.598 -1781.9 -241.349 -1767.44 -352.345 -1742.34C-463.452 -1717.28 -571.959 -1681.51 -675.729 -1635.87C-779.61 -1590.27 -878.911 -1534.72 -971.697 -1470.53C-1064.64 -1406.27 -1151.11 -1333.26 -1229.6 -1252.69C-1308.09 -1172.13 -1378.62 -1084.29 -1439.97 -990.613C-1501.32 -896.94 -1553.34 -797.506 -1595.54 -694.185C-1608.06 -663.523 -1642.94 -650.097 -1673.6 -662.624C-1704.26 -675.151 -1719.2 -708.814 -1706.63 -739.587C-1706.32 -740.368 -1706.05 -741.037 -1705.63 -741.774L-1705.7 -741.93Z" fill="url(#paint24_linear_74_18)"/>
<path d="M-1473.93 1448.04C-1564.63 1351.73 -1646.11 1246.9 -1716.72 1135.48C-1787.24 1023.97 -1846.79 905.961 -1894.38 783.516C-1941.96 661.07 -1977.5 534.276 -2000.73 405.579C-2023.86 276.784 -2034.6 146.179 -2032.78 15.926C-2030.97 -114.327 -2016.7 -244.129 -1990.39 -371.115C-1963.98 -498.197 -1925.43 -622.37 -1875.36 -741.451C-1825.28 -860.532 -1763.76 -974.612 -1692.08 -1081.4C-1620.21 -1188.38 -1538.25 -1287.97 -1447.98 -1378.89C-1534.3 -1284.2 -1611.46 -1181.52 -1677.9 -1072.5C-1744.45 -963.581 -1800.18 -848.416 -1844.23 -729.295C-1888.36 -610.076 -1920.8 -486.901 -1941.14 -362.136C-1961.56 -237.274 -1969.88 -110.634 -1966.05 15.2378C-1962.31 141.206 -1946.42 266.595 -1918.92 388.871C-1891.41 511.335 -1852.19 630.779 -1801.88 745.144C-1751.56 859.508 -1690.44 968.705 -1619.49 1070.87C-1548.54 1173.04 -1467.77 1267.99 -1378.92 1354.45C-1352.55 1380.11 -1353.23 1421.61 -1378.89 1447.98C-1404.56 1474.35 -1445.44 1475.73 -1471.91 1449.97C-1472.58 1449.33 -1473.16 1448.78 -1473.74 1448.04L-1473.93 1448.04Z" fill="url(#paint25_linear_74_18)"/>
<path d="M-2176.07 562.459C-2209.13 422.4 -2228.87 279.327 -2234.79 135.965C-2240.56 -7.43837 -2232.48 -150.991 -2210.72 -292.222C-2188.95 -433.454 -2153.46 -572.225 -2105.35 -706.096C-2057.09 -840.009 -1996.17 -968.883 -1923.62 -1090.6C-1851.07 -1212.32 -1767.03 -1326.83 -1673.17 -1432.15C-1579.18 -1537.5 -1475.33 -1633.51 -1363.39 -1718.46C-1251.45 -1803.4 -1131.45 -1877.41 -1005.84 -1939.01C-879.953 -2000.7 -748.587 -2049.95 -614.093 -2086.51C-746.909 -2044.24 -875.443 -1989.49 -997.33 -1922.93C-1119.26 -1856.51 -1234.4 -1778.34 -1340.68 -1690.07C-1447.1 -1601.77 -1544.65 -1503.38 -1631.66 -1396.9C-1718.82 -1290.39 -1795.53 -1175.61 -1860.38 -1054.95C-1925.37 -934.25 -1978.6 -807.488 -2019.19 -677.341C-2059.89 -547.014 -2087.91 -413.162 -2102.71 -278.061C-2117.51 -142.96 -2119.32 -6.84677 -2108.05 127.988C-2096.78 262.822 -2072.34 396.198 -2035.66 525.971C-2024.78 564.485 -2047.99 603.211 -2086.51 614.093C-2125.02 624.975 -2164.29 604.034 -2175.21 565.38C-2175.5 564.406 -2175.74 563.572 -2175.89 562.557L-2176.07 562.459Z" fill="url(#paint26_linear_74_18)"/>
<path d="M-2238.35 -1068.01C-2166.96 -1209.85 -2082.16 -1344.79 -1985.48 -1470.17C-1888.65 -1595.48 -1780 -1711.09 -1661.43 -1815.04C-1542.86 -1918.98 -1414.43 -2011.11 -1278.81 -2090.14C-1143.04 -2169.11 -1000.13 -2234.84 -852.475 -2286.26C-704.817 -2337.69 -552.552 -2374.88 -398.521 -2397.33C-244.343 -2419.72 -88.463 -2427.22 66.4081 -2419.62C221.279 -2412.03 375.205 -2389.48 525.08 -2352.46C675.248 -2315.31 821.219 -2263.76 960.837 -2199.27C818.592 -2257.75 671.105 -2302.63 520.867 -2332.82C370.693 -2363.16 217.916 -2378.75 65.4758 -2379.52C-87.1106 -2380.36 -239.36 -2366.38 -388.431 -2338.1C-537.65 -2309.88 -683.902 -2267.27 -824.302 -2211.27C-964.848 -2155.34 -1099.75 -2085.95 -1226.38 -2004.73C-1353.22 -1923.43 -1471.84 -1830.16 -1580.18 -1726.46C-1688.51 -1622.76 -1786.58 -1508.98 -1872.7 -1387.02C-1958.81 -1265.05 -2032.75 -1134.97 -2093.79 -999.26C-2111.9 -958.986 -2159 -942.718 -2199.27 -960.837C-2239.55 -978.957 -2257.88 -1024.51 -2239.7 -1064.93C-2239.25 -1065.96 -2238.87 -1066.83 -2238.27 -1067.8L-2238.35 -1068.01Z" fill="url(#paint27_linear_74_18)"/>
<path d="M185.148 17.8529C183.755 29.6808 181.24 41.3659 177.642 52.6824C174.033 63.998 169.341 74.933 163.651 85.3002C157.96 95.6674 151.273 105.455 143.742 114.504C136.199 123.552 127.813 131.85 118.726 139.262C109.638 146.674 99.8612 153.201 89.5815 158.734C79.2898 164.267 68.4962 168.794 57.3865 172.231C46.2767 175.669 34.8501 178.028 23.3378 179.263C11.8015 180.497 0.191607 180.609 -11.3026 179.645C0.222499 180.118 11.7682 179.497 23.131 177.771C34.4931 176.057 45.6602 173.237 56.4235 169.381C67.1989 165.526 77.5704 160.636 87.351 154.818C97.1435 149.002 106.358 142.247 114.816 134.699C123.287 127.152 131.015 118.801 137.856 109.829C144.709 100.846 150.677 91.2293 155.652 81.1417C160.627 71.0542 164.62 60.5202 167.561 49.7155C170.501 38.9108 172.375 27.8466 173.196 16.7162C173.44 13.413 176.341 11.0585 179.645 11.3024C182.948 11.5463 185.409 14.2862 185.164 17.6014C185.159 17.6853 185.154 17.7571 185.137 17.8402L185.148 17.8529Z" fill="url(#paint28_linear_74_18)"/>
<path d="M221.145 -217.26C234.753 -202.81 246.978 -187.081 257.572 -170.364C268.152 -153.633 277.087 -135.928 284.227 -117.557C291.367 -99.1852 296.699 -80.1613 300.184 -60.8518C303.655 -41.5279 305.266 -21.9321 304.993 -2.38931C304.721 17.1535 302.58 36.6288 298.632 55.6814C294.67 74.7485 288.887 93.3791 281.373 111.246C273.86 129.112 264.63 146.229 253.875 162.25C243.091 178.301 230.795 193.243 217.251 206.886C230.202 192.678 241.779 177.272 251.748 160.916C261.732 144.574 270.095 127.294 276.703 109.422C283.325 91.5345 288.192 73.0536 291.243 54.3341C294.308 35.6002 295.555 16.5994 294.98 -2.28606C294.419 -21.186 292.036 -39.999 287.909 -58.345C283.782 -76.7193 277.898 -94.6404 270.349 -111.799C262.8 -128.958 253.628 -145.342 242.984 -160.671C232.339 -176 220.221 -190.246 206.889 -203.218C202.933 -207.068 203.035 -213.295 206.886 -217.251C210.736 -221.207 216.87 -221.414 220.841 -217.55C220.942 -217.453 221.029 -217.371 221.117 -217.26L221.145 -217.26Z" fill="url(#paint29_linear_74_18)"/>
<path d="M375.184 -96.9756C380.884 -72.8275 384.287 -48.1597 385.308 -23.4421C386.304 1.28252 384.91 26.033 381.158 50.3832C377.405 74.7334 371.286 98.6594 362.991 121.741C354.671 144.829 344.167 167.049 331.658 188.034C319.15 209.02 304.66 228.764 288.478 246.922C272.272 265.087 254.368 281.64 235.067 296.285C215.767 310.931 195.078 323.691 173.421 334.313C151.716 344.949 129.066 353.439 105.878 359.743C128.777 352.456 150.938 343.015 171.953 331.539C192.975 320.088 212.827 306.61 231.151 291.392C249.499 276.167 266.319 259.203 281.321 240.845C296.347 222.481 309.573 202.691 320.754 181.888C331.96 161.078 341.137 139.222 348.137 116.783C355.153 94.3128 359.983 71.235 362.536 47.9417C365.088 24.6484 365.4 1.18052 363.457 -22.0668C361.514 -45.3141 357.3 -68.3099 350.975 -90.6846C349.099 -97.325 353.102 -104.002 359.742 -105.878C366.383 -107.754 373.153 -104.144 375.036 -97.4793C375.085 -97.3114 375.128 -97.1675 375.153 -96.9926L375.184 -96.9756Z" fill="url(#paint30_linear_74_18)"/>
<path d="M124.33 -448.088C152.846 -439.523 180.523 -428.259 206.823 -414.489C233.115 -400.689 258 -384.391 281.054 -365.881C304.108 -347.371 325.302 -326.657 344.311 -304.187C363.313 -281.688 380.102 -257.44 394.406 -231.849C408.71 -206.258 420.535 -179.353 429.695 -151.642C438.849 -123.902 445.31 -95.3625 448.949 -66.518C452.589 -37.6734 453.436 -8.51652 451.481 20.3634C449.511 49.3016 444.744 77.9336 437.382 105.814C443.549 77.6444 447.034 48.9493 447.718 20.2247C448.43 -8.49295 446.334 -37.211 441.514 -65.3845C436.701 -93.5871 429.163 -121.245 419.086 -147.85C409.017 -174.485 396.387 -200.103 381.476 -224.205C366.572 -248.336 349.366 -270.987 330.246 -291.725C311.104 -312.498 290.02 -331.365 267.344 -347.993C244.668 -364.622 220.466 -379.026 195.141 -390.956C169.817 -402.885 143.39 -412.303 116.343 -419.155C108.316 -421.19 103.779 -429.356 105.814 -437.382C107.848 -445.409 115.662 -450.278 123.718 -448.236C123.922 -448.187 124.097 -448.145 124.294 -448.066L124.33 -448.088Z" fill="url(#paint31_linear_74_18)"/>
<path d="M59.509 -617.161C98.9351 -612.516 137.886 -604.134 175.607 -592.142C213.326 -580.11 249.776 -564.47 284.333 -545.503C318.89 -526.536 351.515 -504.243 381.678 -479.14C411.839 -453.996 439.498 -426.044 464.205 -395.753C488.912 -365.462 510.669 -332.872 529.113 -298.606C547.556 -264.3 562.646 -228.322 574.104 -191.289C585.561 -154.257 593.425 -116.168 597.543 -77.7933C601.657 -39.3392 602.028 -0.639507 598.816 37.6744C600.391 -0.742484 598.323 -39.2282 592.57 -77.1042C586.857 -114.978 577.456 -152.201 564.603 -188.079C551.753 -223.997 535.452 -258.569 516.061 -291.171C496.672 -323.813 474.156 -354.527 448.997 -382.722C423.84 -410.958 396.003 -436.716 366.096 -459.519C336.151 -482.365 304.097 -502.257 270.472 -518.841C236.847 -535.425 201.733 -548.736 165.717 -558.537C129.702 -568.337 92.8214 -574.585 55.7199 -577.32C44.7092 -578.133 36.861 -587.805 37.674 -598.816C38.487 -609.827 47.62 -618.029 58.6706 -617.214C58.9501 -617.196 59.1896 -617.181 59.4666 -617.124L59.509 -617.161Z" fill="url(#paint32_linear_74_18)"/>
<path d="M638.781 -438.896C666.011 -397.411 689.281 -353.379 708.106 -307.623C726.892 -261.837 741.203 -214.368 750.807 -166.038C760.411 -117.708 765.278 -68.5561 765.475 -19.5028C765.633 29.5801 761.091 78.5245 751.937 126.521C742.783 174.518 729.057 221.537 711.066 266.731C693.035 311.954 670.708 355.313 644.453 396.039C618.199 436.765 588.045 474.899 554.608 509.676C521.092 544.512 484.332 575.962 445.064 603.67C483.116 574.311 518.307 541.409 549.953 505.467C581.628 469.566 609.718 430.655 633.746 389.521C657.815 348.357 677.821 304.969 693.459 260.206C709.137 215.413 720.456 169.174 727.24 122.428C734.064 75.6528 736.362 28.3001 734.167 -18.6595C731.983 -65.689 725.276 -112.366 714.139 -157.888C703.002 -203.411 687.534 -247.73 667.981 -290.091C648.428 -332.453 624.778 -372.789 597.586 -410.513C589.518 -421.709 592.474 -436.996 603.67 -445.064C614.867 -453.133 630.059 -450.978 638.158 -439.741C638.365 -439.459 638.543 -439.218 638.711 -438.906L638.781 -438.896Z" fill="url(#paint33_linear_74_18)"/>
<path d="M925.741 89.2639C918.774 148.403 906.201 206.829 888.213 263.411C870.164 319.99 846.705 374.664 818.254 426.5C789.803 478.336 756.364 527.273 718.709 572.518C680.994 617.759 639.066 659.248 593.629 696.308C548.193 733.368 499.307 766.003 447.908 793.671C396.45 821.334 342.482 843.97 286.933 861.156C231.385 878.342 174.251 890.138 116.69 896.316C59.0085 902.486 0.959007 903.042 -56.5119 898.224C1.11347 900.587 58.8421 897.486 115.656 888.856C172.466 880.286 228.302 866.184 282.119 846.906C335.995 827.63 387.853 803.178 436.756 774.092C485.719 745.009 531.79 711.235 574.083 673.496C616.436 635.761 655.074 594.005 689.279 549.144C723.547 504.227 753.385 456.146 778.261 405.708C803.137 355.27 823.103 302.6 837.805 248.577C852.506 194.553 861.878 139.232 865.98 83.5803C867.2 67.0642 881.708 55.292 898.224 56.5114C914.74 57.7309 927.044 71.4305 925.82 88.0064C925.794 88.4256 925.772 88.7849 925.685 89.2003L925.741 89.2639Z" fill="url(#paint34_linear_74_18)"/>
<path d="M774.008 -760.412C821.637 -709.836 864.424 -654.784 901.503 -596.275C938.533 -537.716 969.805 -475.748 994.795 -411.449C1019.79 -347.149 1038.45 -280.565 1050.64 -212.982C1062.79 -145.348 1068.43 -76.7629 1067.48 -8.36319C1066.53 60.0365 1059.03 128.2 1045.21 194.884C1031.35 261.619 1011.11 326.826 984.808 389.359C958.51 451.892 926.207 511.799 888.562 567.876C850.82 624.054 807.785 676.351 760.38 724.101C805.706 674.372 846.226 620.453 881.12 563.206C916.064 506.007 945.333 445.53 968.461 382.975C991.638 320.37 1008.67 255.687 1019.35 190.169C1030.08 124.6 1034.44 58.0974 1032.43 -8.00181C1030.47 -74.1517 1022.13 -139.997 1007.68 -204.208C993.238 -268.518 972.643 -331.242 946.221 -391.298C919.799 -451.354 887.7 -508.697 850.443 -562.349C813.186 -616.001 770.773 -665.863 724.112 -711.265C710.266 -724.74 710.625 -746.534 724.1 -760.38C737.576 -774.227 759.046 -774.949 772.943 -761.426C773.298 -761.088 773.602 -760.798 773.909 -760.409L774.008 -760.412Z" fill="url(#paint35_linear_74_18)"/>
<path d="M-101.377 -1290.32C-18.6416 -1295.07 64.4709 -1291.95 146.365 -1280.97C228.269 -1269.91 308.871 -1250.97 386.789 -1224.51C464.707 -1198.04 539.857 -1164.04 610.966 -1123.36C682.084 -1082.61 749.078 -1035.17 810.85 -981.854C872.622 -928.538 929.163 -869.425 979.503 -805.668C1029.85 -741.828 1073.92 -673.334 1110.89 -601.357C1147.87 -529.379 1177.85 -453.927 1200.22 -376.53C1222.62 -298.968 1237.41 -219.544 1244.69 -139.615C1234.01 -219.163 1215.81 -297.532 1190.25 -373.311C1164.78 -449.1 1131.95 -522.216 1092.53 -591.314C1053.09 -660.495 1007.05 -725.659 955.364 -785.652C903.673 -845.728 846.252 -900.709 784.309 -949.553C722.357 -998.479 655.792 -1041.34 586.043 -1077.38C516.202 -1113.49 443.095 -1142.76 367.957 -1164.67C292.82 -1186.57 215.809 -1201.21 138.216 -1208.3C60.6226 -1215.4 -17.4606 -1214.87 -94.7247 -1207.05C-117.655 -1204.73 -137.295 -1221.76 -139.615 -1244.69C-141.935 -1267.62 -126.133 -1287.8 -103.12 -1290.13C-102.539 -1290.19 -102.041 -1290.25 -101.451 -1290.23L-101.377 -1290.32Z" fill="url(#paint36_linear_74_18)"/>
<path d="M1350.66 -349.112C1371.18 -262.179 1383.44 -173.375 1387.11 -84.3917C1390.7 4.61703 1385.68 93.7187 1372.17 181.38C1358.66 269.04 1336.63 355.174 1306.77 438.267C1276.82 521.385 1239 601.376 1193.97 676.924C1148.94 752.472 1096.78 823.552 1038.52 888.919C980.181 954.312 915.724 1013.9 846.243 1066.63C776.762 1119.35 702.282 1165.29 624.316 1203.53C546.178 1241.82 464.64 1272.38 381.161 1295.07C463.598 1268.84 543.378 1234.85 619.032 1193.54C694.712 1152.32 766.179 1103.79 832.146 1049.01C898.198 994.202 958.749 933.131 1012.76 867.043C1066.85 800.93 1114.46 729.689 1154.72 654.797C1195.06 579.879 1228.1 501.2 1253.29 420.419C1278.55 339.526 1295.94 256.446 1305.13 172.59C1314.32 88.734 1315.44 4.24983 1308.45 -79.4406C1301.45 -163.131 1286.28 -245.916 1263.51 -326.464C1256.76 -350.37 1271.17 -374.407 1295.07 -381.161C1318.98 -387.915 1343.35 -374.917 1350.13 -350.925C1350.31 -350.321 1350.46 -349.803 1350.55 -349.173L1350.66 -349.112Z" fill="url(#paint37_linear_74_18)"/>
<path d="M1416.67 -801.26C1466.04 -709.49 1506.66 -613.115 1537.67 -513.947C1568.59 -414.725 1589.84 -312.8 1601.08 -209.935C1612.33 -107.07 1613.52 -3.35328 1604.95 99.3028C1596.3 202.014 1577.84 303.574 1549.9 402.308C1521.97 501.042 1484.65 596.894 1438.74 688.147C1392.74 779.455 1338.1 866.075 1275.72 946.469C1213.34 1026.86 1143.28 1101.12 1066.96 1167.75C990.468 1234.5 907.812 1293.56 820.59 1344.34C905.569 1289.89 985.211 1227.5 1057.99 1158.1C1130.83 1088.79 1196.72 1012.53 1254.51 930.874C1312.4 849.163 1362.19 762.058 1403.1 671.275C1444.09 580.437 1476.24 485.777 1498.99 389.226C1521.82 292.62 1535.3 193.978 1539.3 95.3367C1543.34 -3.4492 1537.85 -102.325 1522.88 -199.597C1507.92 -296.87 1483.67 -392.415 1450.52 -484.615C1417.37 -576.815 1375.27 -665.526 1325.29 -749.422C1310.46 -774.322 1319.44 -805.76 1344.34 -820.59C1369.24 -835.42 1400.63 -828.132 1415.52 -803.142C1415.9 -802.515 1416.23 -801.977 1416.52 -801.295L1416.67 -801.26Z" fill="url(#paint38_linear_74_18)"/>
<path d="M1280.57 -1349.08C1365.19 -1265.28 1441.79 -1173.52 1508.82 -1075.5C1575.76 -977.388 1633.05 -873.093 1679.71 -764.427C1726.37 -655.761 1762.32 -542.804 1787.26 -427.747C1812.13 -312.601 1825.89 -195.435 1828.35 -78.1927C1830.81 39.0495 1822.05 156.278 1802.36 271.351C1782.6 386.514 1751.82 499.44 1710.51 608.148C1669.2 716.855 1617.44 821.423 1556.3 919.748C1495 1018.25 1424.39 1110.42 1346.04 1195.07C1420.72 1107.16 1486.91 1012.36 1543.27 912.192C1599.71 812.106 1646.24 706.744 1682.12 598.189C1718.08 489.544 1743.4 377.707 1757.77 264.82C1772.23 151.843 1775.73 37.6467 1768.33 -75.4769C1761.01 -188.69 1742.77 -301 1714.19 -410.145C1685.59 -519.459 1646.56 -625.688 1597.69 -726.998C1548.83 -828.309 1490.41 -924.63 1423.37 -1014.32C1356.33 -1104.01 1280.68 -1186.9 1198.03 -1261.89C1173.5 -1284.15 1172.81 -1321.51 1195.07 -1346.04C1217.33 -1370.56 1254.07 -1373.09 1278.68 -1350.75C1279.31 -1350.19 1279.85 -1349.71 1280.4 -1349.07L1280.57 -1349.08Z" fill="url(#paint39_linear_74_18)"/>
<path d="M-856.599 -1880.3C-735.075 -1932.59 -608.696 -1973.3 -479.848 -2001.55C-350.942 -2029.67 -219.687 -2045.27 -88.3496 -2048.11C42.9878 -2050.95 174.288 -2040.97 303.169 -2018.78C432.109 -1996.47 558.51 -1961.89 680.287 -1915.64C802.064 -1869.38 919.158 -1811.58 1029.49 -1743.42C1139.87 -1675.14 1243.37 -1596.45 1338.15 -1508.67C1432.92 -1420.88 1519.08 -1324.06 1594.91 -1220.17C1670.85 -1116.05 1736.41 -1004.98 1790.98 -889.048C1731.51 -1002.55 1661.42 -1110.17 1581.7 -1209.9C1502.11 -1309.68 1412.95 -1401.44 1316.08 -1483.57C1219.14 -1565.82 1114.49 -1638.43 1004.2 -1700.21C893.858 -1762.11 777.699 -1813.24 658.108 -1852.69C538.458 -1892.26 415.198 -1920.22 290.889 -1936.19C166.402 -1952.23 40.7477 -1956.23 -83.9283 -1948.06C-208.604 -1939.9 -332.122 -1919.81 -452.395 -1888.08C-572.668 -1856.35 -689.517 -1812.93 -801.15 -1759.01C-834.282 -1743.01 -873.048 -1757.84 -889.048 -1790.98C-905.049 -1824.11 -892.358 -1863 -859.107 -1879.06C-858.271 -1879.47 -857.555 -1879.83 -856.66 -1880.12L-856.599 -1880.3Z" fill="url(#paint40_linear_74_18)"/>
<path d="M215.721 -2237.21C358.641 -2220.37 499.837 -2189.99 636.577 -2146.51C773.308 -2102.9 905.439 -2046.2 1030.71 -1977.45C1155.98 -1908.69 1274.24 -1827.88 1383.58 -1736.88C1492.92 -1645.74 1593.18 -1544.41 1682.74 -1434.61C1772.31 -1324.8 1851.17 -1206.66 1918.04 -1082.45C1984.89 -958.088 2039.59 -827.666 2081.13 -693.423C2122.66 -559.18 2151.17 -421.108 2166.1 -282.001C2181.01 -142.605 2182.35 -2.31844 2170.71 136.569C2176.42 -2.69173 2168.92 -142.203 2148.07 -279.503C2127.36 -416.794 2093.28 -551.731 2046.69 -681.788C2000.11 -811.989 1941.01 -937.312 1870.72 -1055.49C1800.44 -1173.82 1718.82 -1285.16 1627.62 -1387.37C1536.42 -1489.72 1435.51 -1583.1 1327.1 -1665.76C1218.55 -1748.57 1102.35 -1820.68 980.461 -1880.8C858.57 -1940.91 731.284 -1989.17 600.727 -2024.7C470.17 -2060.22 336.478 -2082.87 201.985 -2092.79C162.072 -2095.73 133.622 -2130.79 136.569 -2170.71C139.516 -2210.62 172.624 -2240.36 212.682 -2237.4C213.695 -2237.34 214.563 -2237.28 215.567 -2237.07L215.721 -2237.21Z" fill="url(#paint41_linear_74_18)"/>
<path d="M1769.16 -1738.08C1878.03 -1622.48 1975.83 -1496.65 2060.58 -1362.92C2145.22 -1229.07 2216.7 -1087.42 2273.82 -940.454C2330.94 -793.483 2373.59 -641.292 2401.47 -486.816C2429.24 -332.224 2442.13 -175.458 2439.95 -19.1159C2437.77 137.226 2420.64 293.029 2389.06 445.449C2357.36 597.986 2311.1 747.031 2250.99 889.964C2190.88 1032.9 2117.04 1169.83 2031 1298C1944.73 1426.41 1846.37 1545.95 1738.01 1655.09C1841.61 1541.42 1934.23 1418.18 2013.99 1287.33C2093.86 1156.59 2160.76 1018.35 2213.63 875.372C2266.6 732.275 2305.54 584.427 2329.95 434.672C2354.46 284.8 2364.44 132.794 2359.84 -18.2899C2355.36 -169.49 2336.29 -319.994 2303.28 -466.762C2270.26 -613.756 2223.18 -757.124 2162.79 -894.396C2102.4 -1031.67 2029.03 -1162.74 1943.87 -1285.37C1858.71 -1408 1761.77 -1521.97 1655.11 -1625.75C1623.47 -1656.55 1624.29 -1706.36 1655.09 -1738.01C1685.89 -1769.66 1734.96 -1771.31 1766.73 -1740.4C1767.54 -1739.63 1768.23 -1738.97 1768.93 -1738.08L1769.16 -1738.08Z" fill="url(#paint42_linear_74_18)"/>
<path d="M-108.035 151.417C-117.582 144.296 -126.444 136.276 -134.446 127.502C-142.44 118.718 -149.564 109.187 -155.698 99.0758C-161.831 88.9644 -166.963 78.279 -171.034 67.2324C-175.099 56.1758 -178.092 44.7648 -179.967 33.1889C-181.843 21.613 -182.606 9.88229 -182.259 -1.78694C-181.904 -13.4662 -180.428 -25.0773 -177.85 -36.4172C-175.272 -47.7571 -171.602 -58.8325 -166.916 -69.4202C-162.216 -80.0279 -156.508 -90.138 -149.926 -99.6104C-156.098 -89.8657 -161.333 -79.5567 -165.52 -68.8533C-169.717 -58.1565 -172.858 -47.0753 -174.9 -35.8261C-176.949 -24.5669 -177.9 -13.1396 -177.752 -1.76074C-177.611 9.62816 -176.369 20.9854 -174.061 32.0846C-171.761 43.1939 -168.392 54.0618 -164.042 64.4723C-159.689 74.8994 -154.345 84.8756 -148.097 94.228C-141.848 103.58 -134.722 112.306 -126.835 120.254C-118.948 128.203 -110.304 135.358 -101.075 141.634C-98.336 143.497 -97.7477 147.187 -99.6105 149.926C-101.473 152.665 -105.077 153.426 -107.825 151.556C-107.895 151.51 -107.955 151.47 -108.019 151.413L-108.035 151.417Z" fill="url(#paint43_linear_74_18)"/>
<path d="M77.5806 300.148C58.262 304.708 38.5278 307.43 18.7537 308.247C-1.02596 309.044 -20.8263 307.929 -40.3065 304.927C-59.7867 301.925 -78.9275 297.03 -97.3925 290.393C-115.863 283.737 -133.639 275.334 -150.427 265.327C-167.216 255.32 -183.011 243.728 -197.537 230.783C-212.069 217.818 -225.312 203.495 -237.028 188.054C-248.744 172.614 -258.953 156.063 -267.45 138.737C-275.959 121.373 -282.751 103.254 -287.794 84.7026C-281.965 103.022 -274.412 120.751 -265.232 137.563C-256.07 154.381 -245.288 170.262 -233.113 184.921C-220.934 199.6 -207.362 213.056 -192.676 225.057C-177.984 237.078 -162.153 247.659 -145.51 256.604C-128.862 265.568 -111.378 272.91 -93.4263 278.51C-75.4502 284.123 -56.9879 287.987 -38.3533 290.029C-19.7186 292.071 -0.944365 292.32 17.6535 290.766C36.2514 289.212 54.648 285.84 72.5477 280.781C77.86 279.28 83.2015 282.482 84.7024 287.794C86.2034 293.107 83.315 298.523 77.9835 300.029C77.8492 300.069 77.7341 300.103 77.5941 300.123L77.5806 300.148Z" fill="url(#paint44_linear_74_18)"/>
<path d="M-103.609 373.407C-127.372 366.269 -150.436 356.883 -172.352 345.408C-194.263 333.908 -215.001 320.326 -234.212 304.901C-253.424 289.476 -271.085 272.214 -286.926 253.489C-302.761 234.74 -316.752 214.534 -328.672 193.208C-340.592 171.882 -350.446 149.461 -358.08 126.369C-365.708 103.252 -371.092 79.469 -374.124 55.4319C-377.157 31.3948 -377.864 7.09736 -376.234 -16.9692C-374.593 -41.0844 -370.621 -64.9444 -364.485 -88.1782C-369.624 -64.7034 -372.529 -40.7909 -373.098 -16.8536C-373.692 7.07772 -371.946 31.0095 -367.929 54.4873C-363.917 77.9895 -357.636 101.038 -349.239 123.209C-340.848 145.404 -330.323 166.753 -317.897 186.838C-305.477 206.947 -291.139 225.823 -275.206 243.104C-259.254 260.415 -241.683 276.138 -222.787 289.995C-203.89 303.852 -183.722 315.855 -162.618 325.797C-141.514 335.738 -119.492 343.586 -96.9527 349.296C-90.2639 350.992 -86.4829 357.797 -88.1783 364.485C-89.8737 371.174 -96.3854 375.232 -103.099 373.531C-103.269 373.489 -103.414 373.454 -103.579 373.389L-103.609 373.407Z" fill="url(#paint45_linear_74_18)"/>
<path d="M325.891 331.718C304.215 352.13 280.622 370.468 255.547 386.359C230.45 402.229 203.892 415.631 176.335 426.341C148.778 437.051 120.242 445.048 91.278 450.276C62.292 455.483 32.8984 457.899 3.5842 457.491C-25.73 457.082 -54.9429 453.871 -83.5218 447.949C-112.122 442.006 -140.068 433.331 -166.868 422.061C-193.668 410.79 -219.343 396.946 -243.375 380.813C-267.452 364.637 -289.865 346.194 -310.329 325.878C-289.016 345.303 -265.908 362.669 -241.374 377.623C-216.86 392.599 -190.941 405.143 -164.132 415.055C-137.302 424.988 -109.58 432.289 -81.501 436.865C-53.4001 441.462 -24.8989 443.333 3.42933 442.471C31.7793 441.63 59.9988 438.054 87.5178 431.864C115.079 425.674 141.961 416.847 167.699 405.524C193.438 394.2 218.013 380.443 241.007 364.476C264.001 348.509 285.37 330.332 304.828 310.334C310.603 304.4 319.943 304.554 325.877 310.329C331.811 316.104 332.121 325.306 326.325 331.262C326.18 331.414 326.056 331.544 325.89 331.675L325.891 331.718Z" fill="url(#paint46_linear_74_18)"/>
<path d="M504.723 360.117C480.987 391.939 454.252 421.48 425.006 448.152C395.727 474.801 363.957 498.548 330.253 518.992C296.548 539.435 260.93 556.543 224.108 570.113C187.253 583.661 149.216 593.639 110.63 599.89C72.0433 606.142 32.9408 608.688 -5.95664 607.529C-44.8874 606.348 -83.591 601.427 -121.391 592.833C-159.191 584.239 -196.108 572.005 -231.401 556.385C-266.76 540.72 -300.46 521.691 -332.035 499.753C-299.553 520.325 -265.189 537.778 -229.511 551.733C-193.855 565.722 -156.918 576.193 -119.42 583.001C-81.8897 589.831 -43.799 593 -5.8693 592.507C32.0937 592.037 69.9511 587.895 106.949 580.204C143.98 572.536 180.206 561.307 214.907 546.808C249.664 532.298 282.918 514.484 314.093 493.656C345.268 472.828 374.352 449.074 400.848 422.784C427.343 396.494 451.195 367.679 472.114 336.915C478.323 327.786 490.624 325.826 499.753 332.035C508.882 338.244 511.419 350.255 505.187 359.418C505.032 359.651 504.9 359.851 504.711 360.062L504.723 360.117Z" fill="url(#paint47_linear_74_18)"/>
<path d="M60.7046 772.649C11.1625 775.489 -38.6055 773.625 -87.644 767.05C-136.688 760.426 -184.953 749.085 -231.61 733.237C-278.268 717.389 -323.268 697.028 -365.848 672.673C-408.434 648.268 -448.55 619.863 -485.539 587.937C-522.528 556.011 -556.385 520.614 -586.529 482.436C-616.678 444.209 -643.064 403.195 -665.206 360.094C-687.349 316.994 -705.297 271.813 -718.696 225.468C-732.107 179.023 -740.964 131.464 -745.326 83.6019C-738.926 131.235 -728.027 178.163 -712.724 223.54C-697.47 268.922 -677.817 312.705 -654.208 354.081C-630.593 395.507 -603.022 434.526 -572.075 470.451C-541.122 506.424 -506.738 539.347 -469.646 568.595C-432.549 597.892 -392.69 623.559 -350.924 645.138C-309.103 666.761 -265.326 684.29 -220.334 697.407C-175.341 710.523 -129.227 719.288 -82.7641 723.535C-36.3011 727.782 10.4553 727.468 56.7212 722.782C70.4519 721.393 82.2125 731.595 83.6017 745.326C84.9909 759.057 75.5285 771.137 61.7481 772.532C61.4003 772.571 61.1022 772.604 60.7488 772.593L60.7046 772.649Z" fill="url(#paint48_linear_74_18)"/>
<path d="M-540.176 757.084C-587.908 721.481 -632.22 681.379 -672.227 637.51C-712.201 593.59 -747.822 545.936 -778.487 495.379C-809.153 444.822 -834.814 391.395 -855.17 336.162C-875.492 280.879 -890.459 223.824 -899.836 165.945C-909.212 108.065 -913.032 49.4114 -911.293 -8.93472C-909.521 -67.3309 -902.141 -125.386 -889.25 -182.086C-876.359 -238.786 -858.008 -294.162 -834.577 -347.101C-811.08 -400.14 -782.537 -450.69 -749.629 -498.052C-780.488 -449.329 -806.667 -397.784 -827.6 -344.266C-848.584 -290.782 -864.289 -235.376 -874.501 -179.13C-884.747 -122.834 -889.5 -65.6982 -888.761 -8.80371C-888.056 48.1408 -881.843 104.927 -870.306 160.423C-858.803 215.969 -841.96 270.309 -820.212 322.361C-798.447 374.497 -771.726 424.378 -740.484 471.14C-709.242 517.902 -673.611 561.529 -634.176 601.272C-594.741 641.015 -551.518 676.792 -505.373 708.171C-491.679 717.485 -488.738 735.936 -498.052 749.629C-507.366 763.323 -525.383 767.129 -539.126 757.781C-539.476 757.549 -539.776 757.35 -540.092 757.067L-540.176 757.084Z" fill="url(#paint49_linear_74_18)"/>
<path d="M271.532 1050.52C203.917 1066.48 134.847 1076.01 65.6381 1078.86C-3.59094 1081.65 -72.8923 1077.75 -141.073 1067.24C-209.254 1056.74 -276.246 1039.6 -340.874 1016.38C-405.521 993.08 -467.737 963.669 -526.496 928.645C-585.256 893.62 -640.54 853.048 -691.381 807.739C-742.242 762.363 -788.593 712.23 -829.599 658.189C-870.605 604.149 -906.335 546.219 -936.076 485.579C-965.857 424.805 -989.63 361.387 -1007.28 296.459C-986.876 360.577 -960.441 422.628 -928.31 481.47C-896.247 540.332 -858.507 595.918 -815.897 647.225C-773.268 698.599 -725.768 745.694 -674.367 787.7C-622.946 829.774 -567.536 866.806 -509.286 898.113C-451.017 929.488 -389.822 955.186 -326.992 974.784C-264.076 994.429 -199.458 1007.96 -134.237 1015.1C-69.0153 1022.25 -3.30534 1023.12 61.7872 1017.68C126.88 1012.24 191.268 1000.44 253.917 982.732C272.51 977.479 291.205 988.687 296.458 1007.28C301.712 1025.87 291.602 1044.83 272.942 1050.1C272.472 1050.24 272.069 1050.36 271.579 1050.43L271.532 1050.52Z" fill="url(#paint50_linear_74_18)"/>
<path d="M1168.14 557.367C1130.88 631.389 1086.63 701.81 1036.17 767.243C985.64 832.642 928.937 892.977 867.058 947.222C805.179 1001.47 738.157 1049.55 667.378 1090.79C596.523 1132.01 521.944 1166.31 444.885 1193.14C367.826 1219.98 288.363 1239.39 207.978 1251.11C127.516 1262.79 46.1664 1266.71 -34.657 1262.74C-115.48 1258.78 -195.81 1247.01 -274.026 1227.69C-352.395 1208.3 -428.574 1181.4 -501.437 1147.74C-427.203 1178.26 -350.233 1201.69 -271.828 1217.44C-193.456 1233.28 -113.725 1241.41 -34.1704 1241.81C45.4606 1242.25 124.916 1234.96 202.712 1220.2C280.586 1205.47 356.911 1183.23 430.182 1154.01C503.53 1124.82 573.934 1088.6 640.017 1046.22C706.21 1003.79 768.116 955.114 824.654 900.996C881.193 846.877 932.374 787.502 977.313 723.85C1022.25 660.199 1060.84 592.315 1092.69 521.489C1102.15 500.471 1126.73 491.981 1147.74 501.437C1168.76 510.893 1178.33 534.665 1168.84 555.76C1168.61 556.296 1168.41 556.755 1168.1 557.257L1168.14 557.367Z" fill="url(#paint51_linear_74_18)"/>
<path d="M-372.992 1344.27C-458.538 1318.57 -541.57 1284.78 -620.469 1243.47C-699.346 1202.07 -774.002 1153.17 -843.164 1097.64C-912.325 1042.11 -975.906 979.971 -1032.93 912.561C-1089.94 845.064 -1140.31 772.321 -1183.22 695.548C-1226.13 618.775 -1261.6 538.06 -1289.09 454.927C-1316.55 371.706 -1335.93 286.088 -1346.85 199.555C-1357.77 113.021 -1360.31 25.5504 -1354.44 -61.0893C-1348.53 -147.904 -1334.23 -233.8 -1312.15 -317.442C-1330.65 -232.932 -1341.1 -146.847 -1343.15 -60.6732C-1345.29 25.4797 -1339 111.634 -1324.54 196.154C-1310.1 280.762 -1287.49 363.736 -1257.26 443.552C-1227.05 523.456 -1189.16 600.31 -1144.43 672.616C-1099.72 745.009 -1048.1 812.962 -990.74 875.174C-933.314 937.495 -870.059 994.096 -802.032 1043.98C-734.005 1093.87 -661.4 1137.08 -585.425 1172.87C-509.45 1208.66 -430.171 1236.91 -349.03 1257.47C-324.95 1263.57 -311.338 1288.07 -317.442 1312.15C-323.545 1336.23 -346.987 1350.83 -371.155 1344.71C-371.767 1344.56 -372.292 1344.44 -372.883 1344.2L-372.992 1344.27Z" fill="url(#paint52_linear_74_18)"/>
<path d="M-14.4211 1627.5C-118.584 1624.37 -222.357 1611.36 -323.743 1588.63C-425.131 1565.8 -524.026 1533.24 -618.733 1491.55C-713.44 1449.85 -803.854 1399.02 -888.474 1340.28C-973.098 1281.43 -1051.82 1214.66 -1123.36 1141.1C-1194.9 1067.54 -1259.25 987.296 -1315.32 901.911C-1371.4 816.42 -1419.09 725.788 -1457.52 631.569C-1495.96 537.35 -1525.24 439.546 -1544.79 340.139C-1564.34 240.522 -1574.16 139.407 -1574.53 38.4808C-1569.86 139.302 -1555.65 239.47 -1531.94 337.199C-1508.33 434.932 -1475.23 530.122 -1433.42 621.002C-1391.6 711.987 -1341.06 798.664 -1282.89 879.482C-1224.72 960.404 -1158.81 1035.57 -1086.57 1103.55C-1014.33 1171.63 -935.639 1232.62 -852.214 1285.41C-768.682 1338.3 -680.309 1382.98 -588.585 1418.65C-496.861 1454.33 -401.994 1481.1 -305.57 1498.49C-209.146 1515.88 -111.274 1523.78 -13.6275 1522.45C15.3516 1522.05 38.0874 1545.55 38.4806 1574.53C38.8737 1603.51 16.8673 1627.05 -12.2167 1627.44C-12.9515 1627.46 -13.5813 1627.48 -14.3187 1627.39L-14.4211 1627.5Z" fill="url(#paint53_linear_74_18)"/>
<path d="M528.05 1783.54C413.164 1814.93 295.401 1835.39 177 1844.42C58.5606 1853.35 -60.4028 1850.81 -177.841 1836.88C-295.28 1822.96 -411.08 1797.62 -523.192 1761.69C-635.342 1725.65 -743.692 1678.98 -846.456 1622.49C-949.221 1566 -1046.36 1499.8 -1136.18 1425.22C-1226.03 1350.52 -1308.44 1267.4 -1381.93 1177.27C-1455.41 1087.14 -1520.09 990.03 -1574.67 887.918C-1629.33 785.579 -1673.85 678.35 -1707.98 568.168C-1669.19 676.797 -1620.18 781.524 -1561.61 880.412C-1503.16 979.339 -1435.18 1072.31 -1359.11 1157.67C-1283 1243.13 -1198.8 1320.97 -1108.23 1389.87C-1017.61 1458.87 -920.466 1519 -818.798 1569.15C-717.092 1619.42 -610.712 1659.79 -501.898 1689.6C-392.931 1719.5 -281.416 1738.8 -169.248 1747.14C-57.0812 1755.48 55.548 1753.05 166.742 1739.84C277.936 1726.62 387.542 1702.55 493.815 1668.47C525.356 1658.35 558.055 1676.44 568.168 1707.98C578.281 1739.52 562.095 1772.6 530.441 1782.75C529.644 1783.01 528.961 1783.24 528.126 1783.39L528.05 1783.54Z" fill="url(#paint54_linear_74_18)"/>
<path d="M2056.69 198.315C2041.21 329.702 2013.28 459.505 1973.31 585.212C1933.22 710.91 1881.1 832.379 1817.89 947.541C1754.68 1062.7 1680.39 1171.42 1596.73 1271.94C1512.94 1372.45 1419.79 1464.63 1318.85 1546.97C1217.9 1629.3 1109.29 1701.8 995.104 1763.27C880.78 1824.73 760.882 1875.02 637.471 1913.2C514.06 1951.38 387.129 1977.59 259.247 1991.31C131.098 2005.02 2.13147 2006.26 -125.55 1995.55C2.47464 2000.8 130.728 1993.91 256.95 1974.74C383.163 1955.7 507.212 1924.37 626.775 1881.54C746.47 1838.72 861.681 1784.39 970.327 1719.77C1079.11 1655.16 1181.46 1580.13 1275.42 1496.28C1369.52 1412.45 1455.36 1319.68 1531.35 1220.01C1607.48 1120.22 1673.77 1013.4 1729.04 901.348C1784.3 789.293 1828.66 672.277 1861.32 552.255C1893.98 432.232 1914.81 309.328 1923.92 185.688C1926.63 148.995 1958.86 122.84 1995.55 125.55C2032.25 128.259 2059.58 158.695 2056.87 195.521C2056.81 196.452 2056.76 197.25 2056.56 198.173L2056.69 198.315Z" fill="url(#paint55_linear_74_18)"/>
<path d="M1829.62 1305.42C1743.58 1420.78 1646.67 1527.86 1540.65 1624.55C1434.51 1721.15 1319.35 1807.24 1197.17 1881.34C1074.99 1955.45 945.87 2017.47 812.391 2066.66C678.791 2115.77 540.907 2151.94 401.032 2174.6C261.157 2197.26 119.411 2206.49 -21.5927 2202.29C-162.717 2198.01 -303.017 2180.17 -440.041 2149.02C-577.066 2117.87 -710.893 2073.52 -838.828 2016.9C-967.005 1960.11 -1089.17 1891.13 -1203.63 1811.6C-1085.88 1886.18 -961.311 1949.44 -831.978 2000.03C-702.725 2050.74 -568.827 2088.7 -432.899 2113.38C-296.85 2138.14 -158.771 2149.62 -21.2761 2147.84C116.34 2146.14 253.573 2131.12 387.689 2103.24C521.926 2075.44 653.247 2034.74 779.04 1982.18C905.034 1929.58 1025.58 1865 1138.59 1789.5C1251.6 1714 1357.03 1627.89 1453.07 1532.59C1549.12 1437.29 1635.58 1332.84 1711.41 1221.32C1733.92 1188.23 1778.51 1181.12 1811.6 1203.63C1844.7 1226.14 1853.89 1269.67 1831.3 1302.89C1830.74 1303.73 1830.26 1304.46 1829.58 1305.22L1829.62 1305.42Z" fill="url(#paint56_linear_74_18)"/>
<path d="M620.644 2401.18C466.096 2437.66 308.223 2459.44 150.03 2465.97C-8.20772 2472.35 -166.611 2463.43 -322.452 2439.41C-478.294 2415.4 -631.42 2376.24 -779.14 2323.14C-926.906 2269.9 -1069.11 2202.67 -1203.42 2122.62C-1337.73 2042.56 -1464.09 1949.82 -1580.3 1846.26C-1696.55 1742.54 -1802.5 1627.95 -1896.23 1504.43C-1989.95 1380.91 -2071.62 1248.5 -2139.6 1109.9C-2207.67 970.983 -2262.01 826.027 -2302.35 677.62C-2255.72 824.175 -2195.29 966.006 -2121.85 1100.5C-2048.56 1235.04 -1962.3 1362.1 -1864.91 1479.37C-1767.47 1596.8 -1658.9 1704.44 -1541.41 1800.46C-1423.88 1896.63 -1297.22 1981.27 -1164.08 2052.83C-1030.9 2124.54 -891.021 2183.28 -747.411 2228.08C-603.601 2272.98 -455.903 2303.9 -306.826 2320.23C-157.749 2336.56 -7.55492 2338.56 141.228 2326.13C290.011 2313.69 437.184 2286.72 580.382 2246.25C622.88 2234.24 665.612 2259.85 677.62 2302.35C689.627 2344.85 666.52 2388.18 623.868 2400.23C622.793 2400.55 621.872 2400.82 620.753 2400.98L620.644 2401.18Z" fill="url(#paint57_linear_74_18)"/>
</g>
<defs>
<radialGradient id="paint0_radial_74_18" cx="0" cy="0" r="1" gradientUnits="userSpaceOnUse" gradientTransform="scale(3000)">
<stop stop-color="white"/>
<stop offset="1" stop-color="#CFCFCF"/>
</radialGradient>
<radialGradient id="paint1_radial_74_18" cx="0" cy="0" r="1" gradientUnits="userSpaceOnUse" gradientTransform="scale(2000)">
<stop stop-color="white"/>
<stop offset="1" stop-color="#CFCFCF"/>
</radialGradient>
<radialGradient id="paint2_radial_74_18" cx="0" cy="0" r="1" gradientUnits="userSpaceOnUse" gradientTransform="scale(1800)">
<stop stop-color="white"/>
<stop offset="1" stop-color="#CFCFCF"/>
</radialGradient>
<radialGradient id="paint3_radial_74_18" cx="0" cy="0" r="1" gradientUnits="userSpaceOnUse" gradientTransform="scale(1700)">
<stop stop-color="white"/>
<stop offset="1" stop-color="#CFCFCF"/>
</radialGradient>
<radialGradient id="paint4_radial_74_18" cx="0" cy="0" r="1" gradientUnits="userSpaceOnUse" gradientTransform="scale(1651)">
<stop stop-color="white"/>
<stop offset="1" stop-color="#CFCFCF"/>
</radialGradient>
<radialGradient id="paint5_radial_74_18" cx="0" cy="0" r="1" gradientUnits="userSpaceOnUse" gradientTransform="scale(1450)">
<stop stop-color="white"/>
<stop offset="1" stop-color="#CFCFCF"/>
</radialGradient>
<radialGradient id="paint6_radial_74_18" cx="0" cy="0" r="1" gradientUnits="userSpaceOnUse" gradientTransform="scale(1250)">
<stop stop-color="white"/>
<stop offset="1" stop-color="#CFCFCF"/>
</radialGradient>
<radialGradient id="paint7_radial_74_18" cx="0" cy="0" r="1" gradientUnits="userSpaceOnUse" gradientTransform="scale(1175)">
<stop stop-color="white"/>
<stop offset="1" stop-color="#CFCFCF"/>
</radialGradient>
<radialGradient id="paint8_radial_74_18" cx="0" cy="0" r="1" gradientUnits="userSpaceOnUse" gradientTransform="scale(900)">
<stop stop-color="white"/>
<stop offset="1" stop-color="#CFCFCF"/>
</radialGradient>
<radialGradient id="paint9_radial_74_18" cx="0" cy="0" r="1" gradientUnits="userSpaceOnUse" gradientTransform="scale(750)">
<stop stop-color="white"/>
<stop offset="1" stop-color="#CFCFCF"/>
</radialGradient>
<radialGradient id="paint10_radial_74_18" cx="0" cy="0" r="1" gradientUnits="userSpaceOnUse" gradientTransform="scale(500)">
<stop stop-color="white"/>
<stop offset="1" stop-color="#CFCFCF"/>
</radialGradient>
<radialGradient id="paint11_radial_74_18" cx="0" cy="0" r="1" gradientUnits="userSpaceOnUse" gradientTransform="scale(380)">
<stop stop-color="white"/>
<stop offset="1" stop-color="#CFCFCF"/>
</radialGradient>
<radialGradient id="paint12_radial_74_18" cx="0" cy="0" r="1" gradientUnits="userSpaceOnUse" gradientTransform="scale(250)">
<stop stop-color="white"/>
<stop offset="1" stop-color="#CFCFCF"/>
</radialGradient>
<linearGradient id="paint13_linear_74_18" x1="86.338" y1="-25.4106" x2="33.8225" y2="-203.843" gradientUnits="userSpaceOnUse">
<stop stop-color="white"/>
<stop offset="0.56" stop-color="#0F917C"/>
<stop offset="1" stop-opacity="0"/>
</linearGradient>
<linearGradient id="paint14_linear_74_18" x1="60.0521" y1="-137.454" x2="-224.02" y2="-261.562" gradientUnits="userSpaceOnUse">
<stop stop-color="white"/>
<stop offset="0.56" stop-color="#0F917C"/>
<stop offset="1" stop-opacity="0"/>
</linearGradient>
<linearGradient id="paint15_linear_74_18" x1="150.917" y1="-111.266" x2="-79.0324" y2="-423.162" gradientUnits="userSpaceOnUse">
<stop stop-color="white"/>
<stop offset="0.56" stop-color="#0F917C"/>
<stop offset="1" stop-opacity="0"/>
</linearGradient>
<linearGradient id="paint16_linear_74_18" x1="-25.0807" y1="-223.598" x2="-487.183" y2="-171.765" gradientUnits="userSpaceOnUse">
<stop stop-color="white"/>
<stop offset="0.56" stop-color="#0F917C"/>
<stop offset="1" stop-opacity="0"/>
</linearGradient>
<linearGradient id="paint17_linear_74_18" x1="-84.7027" y1="-287.794" x2="-679.477" y2="-112.742" gradientUnits="userSpaceOnUse">
<stop stop-color="white"/>
<stop offset="0.56" stop-color="#0F917C"/>
<stop offset="1" stop-opacity="0"/>
</linearGradient>
<linearGradient id="paint18_linear_74_18" x1="207.522" y1="-312.345" x2="-437.992" y2="-741.224" gradientUnits="userSpaceOnUse">
<stop stop-color="white"/>
<stop offset="0.56" stop-color="#0F917C"/>
<stop offset="1" stop-opacity="0"/>
</linearGradient>
<linearGradient id="paint19_linear_74_18" x1="431.691" y1="-127.053" x2="169.113" y2="-1019.22" gradientUnits="userSpaceOnUse">
<stop stop-color="white"/>
<stop offset="0.56" stop-color="#0F917C"/>
<stop offset="1" stop-opacity="0"/>
</linearGradient>
<linearGradient id="paint20_linear_74_18" x1="210.183" y1="-481.09" x2="-784.07" y2="-915.469" gradientUnits="userSpaceOnUse">
<stop stop-color="white"/>
<stop offset="0.56" stop-color="#0F917C"/>
<stop offset="1" stop-opacity="0"/>
</linearGradient>
<linearGradient id="paint21_linear_74_18" x1="-278.453" y1="-560.939" x2="-1437.73" y2="14.5296" gradientUnits="userSpaceOnUse">
<stop stop-color="white"/>
<stop offset="0.56" stop-color="#0F917C"/>
<stop offset="1" stop-opacity="0"/>
</linearGradient>
<linearGradient id="paint22_linear_74_18" x1="543.303" y1="-400.557" x2="-284.516" y2="-1523.38" gradientUnits="userSpaceOnUse">
<stop stop-color="white"/>
<stop offset="0.56" stop-color="#0F917C"/>
<stop offset="1" stop-opacity="0"/>
</linearGradient>
<linearGradient id="paint23_linear_74_18" x1="491.305" y1="-615.447" x2="-780.62" y2="-1630.81" gradientUnits="userSpaceOnUse">
<stop stop-color="white"/>
<stop offset="0.56" stop-color="#0F917C"/>
<stop offset="1" stop-opacity="0"/>
</linearGradient>
<linearGradient id="paint24_linear_74_18" x1="331.312" y1="-836.799" x2="-1398.07" y2="-1521.51" gradientUnits="userSpaceOnUse">
<stop stop-color="white"/>
<stop offset="0.56" stop-color="#0F917C"/>
<stop offset="1" stop-opacity="0"/>
</linearGradient>
<linearGradient id="paint25_linear_74_18" x1="-723.991" y1="-689.447" x2="-2148.85" y2="806.8" gradientUnits="userSpaceOnUse">
<stop stop-color="white"/>
<stop offset="0.56" stop-color="#0F917C"/>
<stop offset="1" stop-opacity="0"/>
</linearGradient>
<linearGradient id="paint26_linear_74_18" x1="-307.047" y1="-1043.25" x2="-2463.1" y2="-408.692" gradientUnits="userSpaceOnUse">
<stop stop-color="white"/>
<stop offset="0.56" stop-color="#0F917C"/>
<stop offset="1" stop-opacity="0"/>
</linearGradient>
<linearGradient id="paint27_linear_74_18" x1="480.419" y1="-1099.63" x2="-1792.16" y2="-2092.5" gradientUnits="userSpaceOnUse">
<stop stop-color="white"/>
<stop offset="0.56" stop-color="#0F917C"/>
<stop offset="1" stop-opacity="0"/>
</linearGradient>
<linearGradient id="paint28_linear_74_18" x1="-5.65142" y1="89.8225" x2="179.982" y2="101.502" gradientUnits="userSpaceOnUse">
<stop stop-color="white"/>
<stop offset="0.56" stop-color="#0F917C"/>
<stop offset="1" stop-opacity="0"/>
</linearGradient>
<linearGradient id="paint29_linear_74_18" x1="108.625" y1="103.443" x2="322.408" y2="-121.05" gradientUnits="userSpaceOnUse">
<stop stop-color="white"/>
<stop offset="0.56" stop-color="#0F917C"/>
<stop offset="1" stop-opacity="0"/>
</linearGradient>
<linearGradient id="paint30_linear_74_18" x1="52.9386" y1="179.871" x2="424.673" y2="70.4641" gradientUnits="userSpaceOnUse">
<stop stop-color="white"/>
<stop offset="0.56" stop-color="#0F917C"/>
<stop offset="1" stop-opacity="0"/>
</linearGradient>
<linearGradient id="paint31_linear_74_18" x1="218.691" y1="52.9072" x2="328.032" y2="-399.055" gradientUnits="userSpaceOnUse">
<stop stop-color="white"/>
<stop offset="0.56" stop-color="#0F917C"/>
<stop offset="1" stop-opacity="0"/>
</linearGradient>
<linearGradient id="paint32_linear_74_18" x1="299.408" y1="18.8372" x2="338.338" y2="-599.939" gradientUnits="userSpaceOnUse">
<stop stop-color="white"/>
<stop offset="0.56" stop-color="#0F917C"/>
<stop offset="1" stop-opacity="0"/>
</linearGradient>
<linearGradient id="paint33_linear_74_18" x1="222.532" y1="301.835" x2="846.324" y2="-158.064" gradientUnits="userSpaceOnUse">
<stop stop-color="white"/>
<stop offset="0.56" stop-color="#0F917C"/>
<stop offset="1" stop-opacity="0"/>
</linearGradient>
<linearGradient id="paint34_linear_74_18" x1="-28.2561" y1="449.112" x2="899.909" y2="507.507" gradientUnits="userSpaceOnUse">
<stop stop-color="white"/>
<stop offset="0.56" stop-color="#0F917C"/>
<stop offset="1" stop-opacity="0"/>
</linearGradient>
<linearGradient id="paint35_linear_74_18" x1="380.19" y1="362.05" x2="1128.43" y2="-423.676" gradientUnits="userSpaceOnUse">
<stop stop-color="white"/>
<stop offset="0.56" stop-color="#0F917C"/>
<stop offset="1" stop-opacity="0"/>
</linearGradient>
<linearGradient id="paint36_linear_74_18" x1="622.347" y1="-69.8072" x2="478.078" y2="-1355.99" gradientUnits="userSpaceOnUse">
<stop stop-color="white"/>
<stop offset="0.56" stop-color="#0F917C"/>
<stop offset="1" stop-opacity="0"/>
</linearGradient>
<linearGradient id="paint37_linear_74_18" x1="190.58" y1="647.537" x2="1528.82" y2="253.671" gradientUnits="userSpaceOnUse">
<stop stop-color="white"/>
<stop offset="0.56" stop-color="#0F917C"/>
<stop offset="1" stop-opacity="0"/>
</linearGradient>
<linearGradient id="paint38_linear_74_18" x1="410.295" y1="672.171" x2="1799.45" y2="-175.772" gradientUnits="userSpaceOnUse">
<stop stop-color="white"/>
<stop offset="0.56" stop-color="#0F917C"/>
<stop offset="1" stop-opacity="0"/>
</linearGradient>
<linearGradient id="paint39_linear_74_18" x1="673.018" y1="597.534" x2="1907.92" y2="-793.371" gradientUnits="userSpaceOnUse">
<stop stop-color="white"/>
<stop offset="0.56" stop-color="#0F917C"/>
<stop offset="1" stop-opacity="0"/>
</linearGradient>
<linearGradient id="paint40_linear_74_18" x1="895.488" y1="-444.524" x2="-23.1952" y2="-2295.2" gradientUnits="userSpaceOnUse">
<stop stop-color="white"/>
<stop offset="0.56" stop-color="#0F917C"/>
<stop offset="1" stop-opacity="0"/>
</linearGradient>
<linearGradient id="paint41_linear_74_18" x1="1085.35" y1="68.2848" x2="1226.48" y2="-2174.78" gradientUnits="userSpaceOnUse">
<stop stop-color="white"/>
<stop offset="0.56" stop-color="#0F917C"/>
<stop offset="1" stop-opacity="0"/>
</linearGradient>
<linearGradient id="paint42_linear_74_18" x1="869.006" y1="827.543" x2="2579.26" y2="-968.403" gradientUnits="userSpaceOnUse">
<stop stop-color="white"/>
<stop offset="0.56" stop-color="#0F917C"/>
<stop offset="1" stop-opacity="0"/>
</linearGradient>
<linearGradient id="paint43_linear_74_18" x1="-74.963" y1="-49.8052" x2="-177.894" y2="105.118" gradientUnits="userSpaceOnUse">
<stop stop-color="white"/>
<stop offset="0.56" stop-color="#0F917C"/>
<stop offset="1" stop-opacity="0"/>
</linearGradient>
<linearGradient id="paint44_linear_74_18" x1="-143.897" y1="42.3514" x2="-56.3712" y2="339.739" gradientUnits="userSpaceOnUse">
<stop stop-color="white"/>
<stop offset="0.56" stop-color="#0F917C"/>
<stop offset="1" stop-opacity="0"/>
</linearGradient>
<linearGradient id="paint45_linear_74_18" x1="-182.243" y1="-44.0891" x2="-273.36" y2="332.546" gradientUnits="userSpaceOnUse">
<stop stop-color="white"/>
<stop offset="0.56" stop-color="#0F917C"/>
<stop offset="1" stop-opacity="0"/>
</linearGradient>
<linearGradient id="paint46_linear_74_18" x1="-155.164" y1="162.939" x2="181.575" y2="483.612" gradientUnits="userSpaceOnUse">
<stop stop-color="white"/>
<stop offset="0.56" stop-color="#0F917C"/>
<stop offset="1" stop-opacity="0"/>
</linearGradient>
<linearGradient id="paint47_linear_74_18" x1="-166.018" y1="249.876" x2="350.394" y2="592.979" gradientUnits="userSpaceOnUse">
<stop stop-color="white"/>
<stop offset="0.56" stop-color="#0F917C"/>
<stop offset="1" stop-opacity="0"/>
</linearGradient>
<linearGradient id="paint48_linear_74_18" x1="-372.663" y1="41.801" x2="-286.275" y2="811.971" gradientUnits="userSpaceOnUse">
<stop stop-color="white"/>
<stop offset="0.56" stop-color="#0F917C"/>
<stop offset="1" stop-opacity="0"/>
</linearGradient>
<linearGradient id="paint49_linear_74_18" x1="-374.815" y1="-249.026" x2="-889.469" y2="525.591" gradientUnits="userSpaceOnUse">
<stop stop-color="white"/>
<stop offset="0.56" stop-color="#0F917C"/>
<stop offset="1" stop-opacity="0"/>
</linearGradient>
<linearGradient id="paint50_linear_74_18" x1="-503.64" y1="148.229" x2="-197.299" y2="1189.09" gradientUnits="userSpaceOnUse">
<stop stop-color="white"/>
<stop offset="0.56" stop-color="#0F917C"/>
<stop offset="1" stop-opacity="0"/>
</linearGradient>
<linearGradient id="paint51_linear_74_18" x1="-250.719" y1="573.872" x2="935.284" y2="1092.02" gradientUnits="userSpaceOnUse">
<stop stop-color="white"/>
<stop offset="0.56" stop-color="#0F917C"/>
<stop offset="1" stop-opacity="0"/>
</linearGradient>
<linearGradient id="paint52_linear_74_18" x1="-656.074" y1="-158.721" x2="-984.097" y2="1197.16" gradientUnits="userSpaceOnUse">
<stop stop-color="white"/>
<stop offset="0.56" stop-color="#0F917C"/>
<stop offset="1" stop-opacity="0"/>
</linearGradient>
<linearGradient id="paint53_linear_74_18" x1="-787.265" y1="19.2404" x2="-747.502" y2="1646.25" gradientUnits="userSpaceOnUse">
<stop stop-color="white"/>
<stop offset="0.56" stop-color="#0F917C"/>
<stop offset="1" stop-opacity="0"/>
</linearGradient>
<linearGradient id="paint54_linear_74_18" x1="-853.988" y1="284.084" x2="-266.881" y2="2048.99" gradientUnits="userSpaceOnUse">
<stop stop-color="white"/>
<stop offset="0.56" stop-color="#0F917C"/>
<stop offset="1" stop-opacity="0"/>
</linearGradient>
<linearGradient id="paint55_linear_74_18" x1="-62.7748" y1="997.777" x2="1999.3" y2="1127.51" gradientUnits="userSpaceOnUse">
<stop stop-color="white"/>
<stop offset="0.56" stop-color="#0F917C"/>
<stop offset="1" stop-opacity="0"/>
</linearGradient>
<linearGradient id="paint56_linear_74_18" x1="-601.813" y1="905.802" x2="1270.18" y2="2149.55" gradientUnits="userSpaceOnUse">
<stop stop-color="white"/>
<stop offset="0.56" stop-color="#0F917C"/>
<stop offset="1" stop-opacity="0"/>
</linearGradient>
<linearGradient id="paint57_linear_74_18" x1="-1151.18" y1="338.81" x2="-450.97" y2="2717.91" gradientUnits="userSpaceOnUse">
<stop stop-color="white"/>
<stop offset="0.56" stop-color="#0F917C"/>
<stop offset="1" stop-opacity="0"/>
</linearGradient>
<clipPath id="clip0_74_18">
<rect width="2000" height="1500" fill="white"/>
</clipPath>
</defs>
</svg>
